<svg xmlns="http://www.w3.org/2000/svg" width="680" height="320" viewBox="0 0 680 320"><defs><filter id="shadow" width="110%" height="110%" x="-4%" y="-4%"><feGaussianBlur in="SourceAlpha" result="blur" stdDeviation="2"/><feComponentTransfer in="blur"><feFuncA slope=".3" type="linear"/></feComponentTransfer><feMerge><feMergeNode/><feMergeNode in="SourceGraphic"/></feMerge></filter><marker id="arrowhead" markerHeight="7" markerWidth="10" orient="auto" refX="9" refY="3.5"><polygon fill="#555" points="0 0 10 3.5 0 7"/></marker></defs><rect width="150" height="90" x="10" y="10" fill="#fef3e2" stroke="#d4760a" stroke-width="1" filter="url(#shadow)" rx="8" ry="8"/><text x="85" y="28" fill="#d4760a" font-family="sans-serif" font-size="11" font-weight="bold" text-anchor="middle">Input A</text><rect width="126" height="22" x="22" y="36" fill="#fff" stroke="#d4760a" stroke-width=".5" rx="4" ry="4"/><text x="85" y="51" fill="#d4760a" font-family="sans-serif" font-size="10" text-anchor="middle">a1</text><rect width="126" height="22" x="22" y="64" fill="#fff" stroke="#d4760a" stroke-width=".5" rx="4" ry="4"/><text x="85" y="79" fill="#d4760a" font-family="sans-serif" font-size="10" text-anchor="middle">a2</text><rect width="150" height="90" x="10" y="120" fill="#f0e8f5" stroke="#7b4fa0" stroke-width="1" filter="url(#shadow)" rx="8" ry="8"/><text x="85" y="138" fill="#7b4fa0" font-family="sans-serif" font-size="11" font-weight="bold" text-anchor="middle">Input B</text><rect width="126" height="22" x="22" y="146" fill="#fff" stroke="#7b4fa0" stroke-width=".5" rx="4" ry="4"/><text x="85" y="161" fill="#7b4fa0" font-family="sans-serif" font-size="10" text-anchor="middle">b1</text><rect width="126" height="22" x="22" y="174" fill="#fff" stroke="#7b4fa0" stroke-width=".5" rx="4" ry="4"/><text x="85" y="189" fill="#7b4fa0" font-family="sans-serif" font-size="10" text-anchor="middle">b2</text><line x1="175" x2="310" y1="130" y2="130" stroke="#555" stroke-width="2" marker-end="url(#arrowhead)"/><text x="243" y="120" fill="#555" font-family="sans-serif" font-size="11" font-weight="bold" text-anchor="middle">Cross</text><text x="243" y="148" fill="#888" font-family="sans-serif" font-size="10" text-anchor="middle">product</text><rect width="170" height="140" x="325" y="10" fill="#fef3e2" stroke="#d4760a" stroke-width="1" filter="url(#shadow)" rx="8" ry="8"/><text x="410" y="28" fill="#d4760a" font-family="sans-serif" font-size="11" font-weight="bold" text-anchor="middle">Output A (list:list)</text><rect width="146" height="44" x="337" y="36" fill="#fff6e8" stroke="#d4760a" stroke-width=".5" rx="5" ry="5"/><text x="352" y="49" fill="#d4760a" font-family="sans-serif" font-size="9" font-weight="bold">a1</text><rect width="122" height="14" x="349" y="53" fill="#fff" stroke="#d4760a" stroke-width=".4" rx="3" ry="3"/><text x="410" y="63" fill="#333" font-family="sans-serif" font-size="8" text-anchor="middle">b1 → a1</text><rect width="122" height="14" x="349" y="69" fill="#fff" stroke="#d4760a" stroke-width=".4" rx="3" ry="3"/><text x="410" y="79" fill="#333" font-family="sans-serif" font-size="8" text-anchor="middle">b2 → a1</text><rect width="146" height="44" x="337" y="86" fill="#fff6e8" stroke="#d4760a" stroke-width=".5" rx="5" ry="5"/><text x="352" y="99" fill="#d4760a" font-family="sans-serif" font-size="9" font-weight="bold">a2</text><rect width="122" height="14" x="349" y="103" fill="#fff" stroke="#d4760a" stroke-width=".4" rx="3" ry="3"/><text x="410" y="113" fill="#333" font-family="sans-serif" font-size="8" text-anchor="middle">b1 → a2</text><rect width="122" height="14" x="349" y="119" fill="#fff" stroke="#d4760a" stroke-width=".4" rx="3" ry="3"/><text x="410" y="129" fill="#333" font-family="sans-serif" font-size="8" text-anchor="middle">b2 → a2</text><rect width="170" height="140" x="325" y="165" fill="#f0e8f5" stroke="#7b4fa0" stroke-width="1" filter="url(#shadow)" rx="8" ry="8"/><text x="410" y="183" fill="#7b4fa0" font-family="sans-serif" font-size="11" font-weight="bold" text-anchor="middle">Output B (list:list)</text><rect width="146" height="44" x="337" y="191" fill="#f5eefa" stroke="#7b4fa0" stroke-width=".5" rx="5" ry="5"/><text x="352" y="204" fill="#7b4fa0" font-family="sans-serif" font-size="9" font-weight="bold">a1</text><rect width="122" height="14" x="349" y="208" fill="#fff" stroke="#7b4fa0" stroke-width=".4" rx="3" ry="3"/><text x="410" y="218" fill="#333" font-family="sans-serif" font-size="8" text-anchor="middle">b1 → b1</text><rect width="122" height="14" x="349" y="224" fill="#fff" stroke="#7b4fa0" stroke-width=".4" rx="3" ry="3"/><text x="410" y="234" fill="#333" font-family="sans-serif" font-size="8" text-anchor="middle">b2 → b2</text><rect width="146" height="44" x="337" y="241" fill="#f5eefa" stroke="#7b4fa0" stroke-width=".5" rx="5" ry="5"/><text x="352" y="254" fill="#7b4fa0" font-family="sans-serif" font-size="9" font-weight="bold">a2</text><rect width="122" height="14" x="349" y="258" fill="#fff" stroke="#7b4fa0" stroke-width=".4" rx="3" ry="3"/><text x="410" y="268" fill="#333" font-family="sans-serif" font-size="8" text-anchor="middle">b1 → b1</text><rect width="122" height="14" x="349" y="274" fill="#fff" stroke="#7b4fa0" stroke-width=".4" rx="3" ry="3"/><text x="410" y="284" fill="#333" font-family="sans-serif" font-size="8" text-anchor="middle">b2 → b2</text><text x="580" y="75" fill="#666" font-family="sans-serif" font-size="10" font-style="italic" text-anchor="middle">Results grouped</text><text x="580" y="90" fill="#666" font-family="sans-serif" font-size="10" font-style="italic" text-anchor="middle">by Input A element</text><text x="580" y="150" fill="#888" font-family="sans-serif" font-size="9" text-anchor="middle">a1/b1: compare(a1,b1)</text><text x="580" y="163" fill="#888" font-family="sans-serif" font-size="9" text-anchor="middle">a1/b2: compare(a1,b2)</text><text x="580" y="176" fill="#888" font-family="sans-serif" font-size="9" text-anchor="middle">a2/b1: compare(a2,b1)</text><text x="580" y="189" fill="#888" font-family="sans-serif" font-size="9" text-anchor="middle">a2/b2: compare(a2,b2)</text></svg>