<svg xmlns="http://www.w3.org/2000/svg" width="680" height="270" viewBox="0 0 680 270"><defs><filter id="shadow" width="110%" height="110%" x="-4%" y="-4%"><feGaussianBlur in="SourceAlpha" result="blur" stdDeviation="2"/><feComponentTransfer in="blur"><feFuncA slope=".3" type="linear"/></feComponentTransfer><feMerge><feMergeNode/><feMergeNode in="SourceGraphic"/></feMerge></filter><marker id="arrowhead" markerHeight="7" markerWidth="10" orient="auto" refX="9" refY="3.5"><polygon fill="#555" points="0 0 10 3.5 0 7"/></marker></defs><rect width="250" height="250" x="10" y="10" fill="#d9ead3" stroke="#888" stroke-width="1" filter="url(#shadow)" rx="8" ry="8"/><text x="135" y="28" fill="#333" font-family="sans-serif" font-size="12" font-weight="bold" text-anchor="middle">Paired collection</text><rect width="226" height="56" x="22" y="38" fill="#e8f0e3" stroke="#aaa" stroke-width=".7" rx="6" ry="6"/><text x="50" y="53" fill="#555" font-family="sans-serif" font-size="10" font-weight="bold">sample1</text><rect width="202" height="14" x="34" y="57" fill="#fef3e2" stroke="#d4760a" stroke-width=".5" rx="3" ry="3"/><text x="135" y="68" fill="#d4760a" font-family="sans-serif" font-size="9" text-anchor="middle">forward</text><rect width="202" height="14" x="34" y="74" fill="#f0e8f5" stroke="#7b4fa0" stroke-width=".5" rx="3" ry="3"/><text x="135" y="85" fill="#7b4fa0" font-family="sans-serif" font-size="9" text-anchor="middle">reverse</text><rect width="226" height="56" x="22" y="102" fill="#e8f0e3" stroke="#aaa" stroke-width=".7" rx="6" ry="6"/><text x="50" y="117" fill="#555" font-family="sans-serif" font-size="10" font-weight="bold">sample2</text><rect width="202" height="14" x="34" y="121" fill="#fef3e2" stroke="#d4760a" stroke-width=".5" rx="3" ry="3"/><text x="135" y="132" fill="#d4760a" font-family="sans-serif" font-size="9" text-anchor="middle">forward</text><rect width="202" height="14" x="34" y="138" fill="#f0e8f5" stroke="#7b4fa0" stroke-width=".5" rx="3" ry="3"/><text x="135" y="149" fill="#7b4fa0" font-family="sans-serif" font-size="9" text-anchor="middle">reverse</text><rect width="226" height="56" x="22" y="166" fill="#e8f0e3" stroke="#aaa" stroke-width=".7" rx="6" ry="6"/><text x="50" y="181" fill="#555" font-family="sans-serif" font-size="10" font-weight="bold">sample3</text><rect width="202" height="14" x="34" y="185" fill="#fef3e2" stroke="#d4760a" stroke-width=".5" rx="3" ry="3"/><text x="135" y="196" fill="#d4760a" font-family="sans-serif" font-size="9" text-anchor="middle">forward</text><rect width="202" height="14" x="34" y="202" fill="#f0e8f5" stroke="#7b4fa0" stroke-width=".5" rx="3" ry="3"/><text x="135" y="213" fill="#7b4fa0" font-family="sans-serif" font-size="9" text-anchor="middle">reverse</text><text x="135" y="245" fill="#666" font-family="sans-serif" font-size="10" font-style="italic" text-anchor="middle">3 paired elements</text><line x1="275" x2="460" y1="130" y2="130" stroke="#555" stroke-width="2" marker-end="url(#arrowhead)"/><text x="368" y="120" fill="#555" font-family="sans-serif" font-size="12" font-weight="bold" text-anchor="middle">Unzip</text><rect width="190" height="105" x="480" y="10" fill="#fef3e2" stroke="#d4760a" stroke-width="1" filter="url(#shadow)" rx="8" ry="8"/><text x="575" y="28" fill="#d4760a" font-family="sans-serif" font-size="12" font-weight="bold" text-anchor="middle">Forward datasets</text><rect width="166" height="20" x="492" y="36" fill="#fff" stroke="#d4760a" stroke-width=".5" rx="4" ry="4"/><text x="575" y="51" fill="#d4760a" font-family="sans-serif" font-size="10" text-anchor="middle">sample1_R1.fastq</text><rect width="166" height="20" x="492" y="62" fill="#fff" stroke="#d4760a" stroke-width=".5" rx="4" ry="4"/><text x="575" y="77" fill="#d4760a" font-family="sans-serif" font-size="10" text-anchor="middle">sample2_R1.fastq</text><rect width="166" height="20" x="492" y="88" fill="#fff" stroke="#d4760a" stroke-width=".5" rx="4" ry="4"/><text x="575" y="103" fill="#d4760a" font-family="sans-serif" font-size="10" text-anchor="middle">sample3_R1.fastq</text><rect width="190" height="105" x="480" y="135" fill="#f0e8f5" stroke="#7b4fa0" stroke-width="1" filter="url(#shadow)" rx="8" ry="8"/><text x="575" y="153" fill="#7b4fa0" font-family="sans-serif" font-size="12" font-weight="bold" text-anchor="middle">Reverse datasets</text><rect width="166" height="20" x="492" y="161" fill="#fff" stroke="#7b4fa0" stroke-width=".5" rx="4" ry="4"/><text x="575" y="176" fill="#7b4fa0" font-family="sans-serif" font-size="10" text-anchor="middle">sample1_R2.fastq</text><rect width="166" height="20" x="492" y="187" fill="#fff" stroke="#7b4fa0" stroke-width=".5" rx="4" ry="4"/><text x="575" y="202" fill="#7b4fa0" font-family="sans-serif" font-size="10" text-anchor="middle">sample2_R2.fastq</text><rect width="166" height="20" x="492" y="213" fill="#fff" stroke="#7b4fa0" stroke-width=".5" rx="4" ry="4"/><text x="575" y="228" fill="#7b4fa0" font-family="sans-serif" font-size="10" text-anchor="middle">sample3_R2.fastq</text></svg>